<svg xmlns="http://www.w3.org/2000/svg" viewBox="0 0 256 192" role="img" aria-label="Illustration of Espresso">
<defs><linearGradient id="bg" x1="0" y1="0" x2="1" y2="1"><stop stop-color="#f4d7a3"/><stop offset="1" stop-color="#b95c3c"/></linearGradient><radialGradient id="glow"><stop stop-color="#fff" stop-opacity=".48"/><stop offset="1" stop-color="#fff" stop-opacity="0"/></radialGradient></defs>
<rect width="256" height="192" rx="22" fill="url(#bg)"/><circle cx="205" cy="38" r="71" fill="url(#glow)"/><path d="M0 157c46-17 77 7 124-2s83-15 132 2v35H0z" fill="#fff" opacity=".19"/>
<g filter="drop-shadow(0 8px 7px #432b2530)" stroke-linejoin="round" stroke-linecap="round"><ellipse cx="128" cy="158" rx="67" ry="13" fill="#d7b985" opacity=".55"/><path d="M72 84h91v43c0 24-17 39-45 39h-2c-27 0-44-15-44-39z" fill="#fff5e4"/><path d="M163 96h17a20 20 0 0 1 0 40h-18" fill="none" stroke="#fff5e4" stroke-width="12"/><ellipse cx="117" cy="85" rx="46" ry="12" fill="#6c3024"/><ellipse cx="117" cy="86" rx="37" ry="7" fill="#a95031"/><path d="M108 85c8-9 19-2 13 5-6 8-17 7-20 0 4 2 8 1 11-2" fill="#f6d78d"/><path d="M100 60c-9-13 7-15 0-27m25 27c-8-12 8-16 1-27" fill="none" stroke="#fff7e8" stroke-width="5" stroke-linecap="round" opacity=".85"/><rect x="96" y="167" width="43" height="5" rx="2" fill="#fff1d8" opacity=".7"/></g>
<circle cx="28" cy="28" r="4" fill="#fff" opacity=".65"/><circle cx="224" cy="142" r="3" fill="#fff" opacity=".6"/>
</svg>