<svg xmlns="http://www.w3.org/2000/svg" viewBox="0 0 256 192" role="img" aria-label="Illustration of Latte">
<defs><linearGradient id="bg" x1="0" y1="0" x2="1" y2="1"><stop stop-color="#f2d9b2"/><stop offset="1" stop-color="#a57b58"/></linearGradient><radialGradient id="glow"><stop stop-color="#fff" stop-opacity=".48"/><stop offset="1" stop-color="#fff" stop-opacity="0"/></radialGradient></defs>
<rect width="256" height="192" rx="22" fill="url(#bg)"/><circle cx="205" cy="38" r="71" fill="url(#glow)"/><path d="M0 157c46-17 77 7 124-2s83-15 132 2v35H0z" fill="#fff" opacity=".19"/>
<g filter="drop-shadow(0 8px 7px #432b2530)" stroke-linejoin="round" stroke-linecap="round"><ellipse cx="128" cy="160" rx="69" ry="12" fill="#c8ac83" opacity=".55"/><path d="M70 83h100v42c0 28-20 45-50 45S70 153 70 125z" fill="#fff5e5"/><path d="M168 95h15a20 20 0 0 1 0 39h-16" fill="none" stroke="#fff5e5" stroke-width="11"/><ellipse cx="120" cy="84" rx="50" ry="14" fill="#9a5737"/><ellipse cx="120" cy="83" rx="42" ry="10" fill="#d29a65"/><path d="M119 76c-19 3-24 17-9 22 6 2 10 0 11-4 1 4 8 6 13 1 8-9-3-17-15-19zm0 4c6 2 7 6 2 8-4 2-7 0-8-4-2 4-5 5-8 3-5-4 3-8 14-7z" fill="#fff2d8"/><path d="M94 61c-7-10 7-14 1-24m24 24c-7-11 8-15 1-25" fill="none" stroke="#fff7eb" stroke-width="4" stroke-linecap="round"/></g>
<circle cx="28" cy="28" r="4" fill="#fff" opacity=".65"/><circle cx="224" cy="142" r="3" fill="#fff" opacity=".6"/>
</svg>